:SAMPLES-PER-SECOND 30
:FULLY-SPECIFIED
:DEGREES
172
root  -12.7744 34.5649 -17.8385 -171.642 0.508316 179.572
RightUpLeg  -7.62703 -14.1425 -1.49876
RightLeg  6.98358 -1.34837 -0.0765431
RightFoot  2.86797 -0.0193004 0.0779367
RightToes  -23.7996 -0.102974 -0.207618
Spine  -2.70464 0.117977 0.250948
Spine1  -5.50496 0.302956 1.03977
HEad  -60.6017 1.44709 5.10237
LeftShoulder1  -1.94126e-019 -3.10601e-018 -2.51263e-017
LeftArm  -11.2954 25.7401 -83.0647
LeftForeArm  32.6523 -13.6609 -2.1827
LeftHand  -0.285007 -0.659799 5.69896
RightShoulder  -4.96962e-017 0 -2.36833e-017
RightArm  -25.129 -26.0219 75.1161
RightForeArm  49.7784 16.1061 1.21278
RightHand  -0.300684 -1.45548 -8.62135
LeftUpLeg  -7.26621 -2.61037 0.563706
LeftLeg  6.99979 12.4684 0.716151
LeftFoot  3.02395 0.0222874 0.787798
LeftToes  -16.3259 1.48347e-006 1.01831e-007
173
root  -12.7742 34.5609 -17.8346 -171.634 0.479904 179.563
RightUpLeg  -7.68125 -14.1088 -1.50465
RightLeg  7.07441 -1.41451 -0.0825981
RightFoot  2.82435 -0.0193178 0.0776555
RightToes  -23.8321 -0.10282 -0.207382
Spine  -2.68731 0.108608 0.267119
Spine1  -5.46942 0.280804 1.07241
HEad  -60.6063 1.49496 5.05161
LeftShoulder1  -1.94126e-019 -3.10601e-018 -2.51263e-017
LeftArm  -11.2929 25.7762 -83.0755
LeftForeArm  32.6964 -13.6324 -2.18228
LeftHand  -0.285051 -0.696263 5.67304
RightShoulder  -4.96962e-017 0 -2.36833e-017
RightArm  -25.1797 -26.1352 75.197
RightForeArm  49.8006 16.0515 1.21215
RightHand  -0.301747 -1.39821 -8.59312
LeftUpLeg  -7.32002 -2.60113 0.55905
LeftLeg  7.07142 12.4236 0.729066
LeftFoot  3.0197 0.0239266 0.784057
LeftToes  -16.505 1.48347e-006 1.01831e-007
174
root  -12.7712 34.5585 -17.8315 -171.618 0.456223 179.553
RightUpLeg  -7.75263 -14.1662 -1.50218
RightLeg  7.17859 -1.38539 -0.0834018
RightFoot  2.76822 -0.0193047 0.0774289
RightToes  -23.7797 -0.102651 -0.207117
Spine  -2.67729 0.0887618 0.28832
Spine1  -5.4487 0.239621 1.11739
HEad  -60.575 1.60459 4.96162
LeftShoulder1  -1.94126e-019 -3.10601e-018 -2.51263e-017
LeftArm  -11.3582 25.7946 -83.1116
LeftForeArm  32.7118 -13.4439 -2.15486
LeftHand  -0.283988 -0.656006 5.69303
RightShoulder  -4.96962e-017 0 -2.36833e-017
RightArm  -25.2662 -26.2037 75.2642
RightForeArm  49.886 15.9973 1.20987
RightHand  -0.303158 -1.43246 -8.55119
LeftUpLeg  -7.37395 -2.66212 0.556788
LeftLeg  7.1345 12.4594 0.744783
LeftFoot  2.98343 0.0256388 0.778261
LeftToes  -16.3712 1.48347e-006 1.01831e-007
175
root  -12.7652 34.5567 -17.8306 -171.593 0.445175 179.544
RightUpLeg  -7.78962 -14.1882 -1.49422
RightLeg  7.20616 -1.37747 -0.0819492
RightFoot  2.75061 -0.019259 0.0772404
RightToes  -23.771 -0.102471 -0.206827
Spine  -2.67875 0.0743882 0.303749
Spine1  -5.45085 0.209753 1.1507
HEad  -60.5041 1.68592 4.86759
LeftShoulder1  -1.94126e-019 -3.10601e-018 -2.51263e-017
LeftArm  -11.4324 25.8341 -83.1206
LeftForeArm  32.7882 -13.2792 -2.13565
LeftHand  -0.283398 -0.656511 5.69871
RightShoulder  -4.96962e-017 0 -2.36833e-017
RightArm  -25.335 -26.2908 75.3235
RightForeArm  49.9049 15.989 1.20938
RightHand  -0.304513 -1.45441 -8.51178
LeftUpLeg  -7.42556 -2.66407 0.558081
LeftLeg  7.19024 12.4586 0.756799
LeftFoot  2.94658 0.0274196 0.770415
LeftToes  -16.2504 1.48347e-006 1.01831e-007
176
root  -12.7596 34.5562 -17.8309 -171.55 0.431503 179.543
RightUpLeg  -7.83775 -14.2224 -1.47376
RightLeg  7.21428 -1.3593 -0.0826605
RightFoot  2.73439 -0.0191787 0.0770736
RightToes  -23.7397 -0.102286 -0.206518
Spine  -2.69312 0.0604287 0.325458
Spine1  -5.47896 0.182464 1.19768
HEad  -60.3971 1.73503 4.77306
LeftShoulder1  -1.94126e-019 -3.10601e-018 -2.51263e-017
LeftArm  -11.5185 25.8908 -83.1613
LeftForeArm  32.8546 -13.2002 -2.12989
LeftHand  -0.282305 -0.641515 5.73265
RightShoulder  -4.96962e-017 0 -2.36833e-017
RightArm  -25.4258 -26.3618 75.3426
RightForeArm  49.9796 16.0108 1.20679
RightHand  -0.303234 -1.42494 -8.57408
LeftUpLeg  -7.48824 -2.67587 0.568407
LeftLeg  7.22208 12.4653 0.764089
LeftFoot  2.93961 0.0287098 0.769143
LeftToes  -16.2777 1.48347e-006 1.01831e-007
177
root  -12.7511 34.5562 -17.8324 -171.534 0.425171 179.54
RightUpLeg  -7.83702 -14.2647 -1.46568
RightLeg  7.18628 -1.32378 -0.0869077
RightFoot  2.73837 -0.0190617 0.0769118
RightToes  -23.7566 -0.102101 -0.206198
Spine  -2.69467 0.0499195 0.332154
Spine1  -5.48136 0.161483 1.21331
HEad  -60.3359 1.79388 4.77088
LeftShoulder1  -1.94126e-019 -3.10601e-018 -2.51263e-017
LeftArm  -11.5366 25.9074 -83.1525
LeftForeArm  32.8944 -13.1115 -2.12371
LeftHand  -0.282396 -0.595405 5.68936
RightShoulder  -4.96962e-017 0 -2.36833e-017
RightArm  -25.4387 -26.4283 75.3878
RightForeArm  49.8942 16.0733 1.20909
RightHand  -0.305009 -1.45187 -8.51805
LeftUpLeg  -7.50423 -2.63874 0.570256
LeftLeg  7.22291 12.4255 0.761864
LeftFoot  2.9515 0.0297414 0.770775
LeftToes  -16.3151 1.48347e-006 1.01831e-007
178
root  -12.7392 34.5568 -17.8266 -171.493 0.434555 179.535
RightUpLeg  -7.90276 -14.2501 -1.42607
RightLeg  7.21072 -1.33375 -0.0855809
RightFoot  2.73018 -0.0189061 0.0767385
RightToes  -23.6956 -0.10192 -0.20587
Spine  -2.71349 0.031016 0.345312
Spine1  -5.51879 0.126263 1.24383
HEad  -60.2523 1.85185 4.77736
LeftShoulder1  -1.94126e-019 -3.10601e-018 -2.51263e-017
LeftArm  -11.6182 25.9595 -83.1512
LeftForeArm  32.9744 -13.0531 -2.11899
LeftHand  -0.281877 -0.603031 5.7016
RightShoulder  -4.96962e-017 0 -2.36833e-017
RightArm  -25.3209 -26.4758 75.392
RightForeArm  49.8141 16.1283 1.21167
RightHand  -0.303797 -1.42915 -8.57661
LeftUpLeg  -7.55349 -2.55047 0.596696
LeftLeg  7.21611 12.3604 0.75647
LeftFoot  2.98147 0.0305588 0.774556
LeftToes  -16.4044 1.48347e-006 1.01831e-007
179
root  -12.7278 34.5586 -17.8259 -171.479 0.449051 179.531
RightUpLeg  -7.89637 -14.2171 -1.40996
RightLeg  7.16358 -1.36292 -0.0816741
RightFoot  2.73419 -0.0187097 0.0765372
RightToes  -23.6767 -0.101749 -0.205541
Spine  -2.70821 0.029265 0.343517
Spine1  -5.50782 0.123353 1.24199
HEad  -60.2737 1.80402 4.77157
LeftShoulder1  -1.94126e-019 -3.10601e-018 -2.51263e-017
LeftArm  -11.5963 25.9319 -83.1179
LeftForeArm  33.0516 -13.0228 -2.11624
LeftHand  -0.281619 -0.616582 5.70361
RightShoulder  -4.96962e-017 0 -2.36833e-017
RightArm  -25.3107 -26.471 75.421
RightForeArm  49.8319 16.1774 1.21139
RightHand  -0.304649 -1.45088 -8.55441
LeftUpLeg  -7.54522 -2.57106 0.606555
LeftLeg  7.17426 12.4018 0.749955
LeftFoot  3.01838 0.0308415 0.7854
LeftToes  -16.4123 1.48347e-006 1.01831e-007
180
root  -12.717 34.5611 -17.8236 -171.471 0.480072 179.532
RightUpLeg  -7.89275 -14.1871 -1.39245
RightLeg  7.11988 -1.35747 -0.0823316
RightFoot  2.75681 -0.0184707 0.0762913
RightToes  -23.6537 -0.101594 -0.205216
Spine  -2.7029 0.031924 0.342274
Spine1  -5.49712 0.129346 1.2421
HEad  -60.3555 1.78605 4.79739
LeftShoulder1  -1.94126e-019 -3.10601e-018 -2.51263e-017
LeftArm  -11.5926 25.905 -83.0938
LeftForeArm  33.0476 -13.0396 -2.11748
LeftHand  -0.281352 -0.603511 5.7028
RightShoulder  -4.96962e-017 0 -2.36833e-017
RightArm  -25.2629 -26.4504 75.4214
RightForeArm  49.8677 16.2117 1.21057
RightHand  -0.304919 -1.41132 -8.55362
LeftUpLeg  -7.53322 -2.60676 0.617755
LeftLeg  7.13647 12.4694 0.745798
LeftFoot  3.03695 0.0312196 0.793451
LeftToes  -16.3763 1.48347e-006 1.01831e-007
181
root  -12.6981 34.5658 -17.8187 -171.445 0.555481 179.544
RightUpLeg  -7.91633 -14.0524 -1.34325
RightLeg  7.07696 -1.4198 -0.0736764
RightFoot  2.77437 -0.0181956 0.0761089
RightToes  -23.632 -0.101459 -0.204902
Spine  -2.69908 0.0462331 0.341285
Spine1  -5.48918 0.159837 1.24323
HEad  -60.435 1.7455 4.80404
LeftShoulder1  -1.94126e-019 -3.10601e-018 -2.51263e-017
LeftArm  -11.489 25.8473 -83.0488
LeftForeArm  33.0559 -13.1123 -2.12228
LeftHand  -0.281191 -0.693522 5.73029
RightShoulder  -4.96962e-017 0 -2.36833e-017
RightArm  -24.9925 -26.4185 75.3563
RightForeArm  49.7445 16.3244 1.21689
RightHand  -0.305617 -1.41308 -8.53429
LeftUpLeg  -7.51362 -2.48967 0.652512
LeftLeg  7.0396 12.4404 0.723168
LeftFoot  3.11142 0.0310577 0.808519
LeftToes  -16.4649 1.48347e-006 1.01831e-007
